HIERARCHY
ROOT hip
{
  OFFSET 0 0 0
  CHANNELS 6 Xposition Yposition Zposition Zrotation Yrotation Xrotation
  JOINT abdomen
  {
    OFFSET 0 20.6881 -0.73152
    CHANNELS 3 Zrotation Xrotation Yrotation
    JOINT chest
    {
      OFFSET 0 11.7043 -0.48768
      CHANNELS 3 Zrotation Xrotation Yrotation
      JOINT neck
      {
        OFFSET 0 22.1894 -2.19456
        CHANNELS 3 Zrotation Xrotation Yrotation
        JOINT head
        {
          OFFSET -0.24384 7.07133 1.2192
          CHANNELS 3 Zrotation Xrotation Yrotation
          JOINT leftEye
          {
            OFFSET 4.14528 8.04674 8.04672
            CHANNELS 3 Zrotation Xrotation Yrotation
            End Site
            {
              OFFSET 1 0 0
            }
          }
          JOINT rightEye
          {
            OFFSET -3.6576 8.04674 8.04672
            CHANNELS 3 Zrotation Xrotation Yrotation
            End Site
            {
              OFFSET 1 0 0
            }
          }
        }
      }
      JOINT rCollar
      {
        OFFSET -2.68224 19.2634 -4.8768
        CHANNELS 3 Zrotation Xrotation Yrotation
        JOINT rShldr
        {
          OFFSET -8.77824 -1.95073 1.46304
          CHANNELS 3 Zrotation Xrotation Yrotation
          JOINT rForeArm
          {
            OFFSET -28.1742 -1.7115 0.48768
            CHANNELS 3 Zrotation Xrotation Yrotation
            JOINT rHand
            {
              OFFSET -22.5879 0.773209 7.07136
              CHANNELS 3 Zrotation Xrotation Yrotation
              JOINT rThumb1
              {
                OFFSET -1.2192 -0.487915 3.41376
                CHANNELS 3 Zrotation Xrotation Yrotation
                JOINT rThumb2
                {
                  OFFSET -3.37035 -0.52449 3.41376
                  CHANNELS 3 Zrotation Xrotation Yrotation
                  End Site
                  {
                    OFFSET -1.78271 -1.18214 1.43049
                  }
                }
              }
              JOINT rIndex1
              {
                OFFSET -7.75947 0.938293 5.60832
                CHANNELS 3 Zrotation Xrotation Yrotation
                JOINT rIndex2
                {
                  OFFSET -2.54057 -0.884171 1.56538
                  CHANNELS 3 Zrotation Xrotation Yrotation
                  End Site
                  {
                    OFFSET -1.62519 -0.234802 1.16502
                  }
                }
              }
              JOINT rMid1
              {
                OFFSET -8.24714 1.18213 3.41376
                CHANNELS 3 Zrotation Xrotation Yrotation
                JOINT rMid2
                {
                  OFFSET -3.10165 -0.590103 1.0647
                  CHANNELS 3 Zrotation Xrotation Yrotation
                  End Site
                  {
                    OFFSET -2.48547 -0.328903 0.83742
                  }
                }
              }
              JOINT rRing1
              {
                OFFSET -8.82822 0.546677 1.51678
                CHANNELS 3 Zrotation Xrotation Yrotation
                JOINT rRing2
                {
                  OFFSET -2.60934 -0.819778 -0.0198488
                  CHANNELS 3 Zrotation Xrotation Yrotation
                  End Site
                  {
                    OFFSET -2.33842 -0.294052 0.168128
                  }
                }
              }
              JOINT rPinky1
              {
                OFFSET -8.27202 -0.0477905 -0.4584
                CHANNELS 3 Zrotation Xrotation Yrotation
                JOINT rPinky2
                {
                  OFFSET -1.82734 -0.647385 -0.700984
                  CHANNELS 3 Zrotation Xrotation Yrotation
                  End Site
                  {
                    OFFSET -1.69225 -0.51767 -0.607171
                  }
                }
              }
            }
          }
        }
      }
      JOINT lCollar
      {
        OFFSET 2.68224 19.2634 -4.8768
        CHANNELS 3 Zrotation Xrotation Yrotation
        JOINT lShldr
        {
          OFFSET 8.77824 -1.95073 1.46304
          CHANNELS 3 Zrotation Xrotation Yrotation
          JOINT lForeArm
          {
            OFFSET 28.1742 -1.7115 0.48768
            CHANNELS 3 Zrotation Xrotation Yrotation
            JOINT lHand
            {
              OFFSET 22.5879 0.773209 7.07136
              CHANNELS 3 Zrotation Xrotation Yrotation
              JOINT lThumb1
              {
                OFFSET 1.2192 -0.487915 3.41376
                CHANNELS 3 Zrotation Xrotation Yrotation
                JOINT lThumb2
                {
                  OFFSET 3.37035 -0.52449 3.41376
                  CHANNELS 3 Zrotation Xrotation Yrotation
                  End Site
                  {
                    OFFSET 1.78271 -1.18214 1.43049
                  }
                }
              }
              JOINT lIndex1
              {
                OFFSET 7.75947 0.938293 5.60832
                CHANNELS 3 Zrotation Xrotation Yrotation
                JOINT lIndex2
                {
                  OFFSET 2.54057 -0.884171 1.56538
                  CHANNELS 3 Zrotation Xrotation Yrotation
                  End Site
                  {
                    OFFSET 1.62519 -0.234802 1.16502
                  }
                }
              }
              JOINT lMid1
              {
                OFFSET 8.24714 1.18213 3.41376
                CHANNELS 3 Zrotation Xrotation Yrotation
                JOINT lMid2
                {
                  OFFSET 3.10165 -0.590103 1.0647
                  CHANNELS 3 Zrotation Xrotation Yrotation
                  End Site
                  {
                    OFFSET 2.48547 -0.328903 0.83742
                  }
                }
              }
              JOINT lRing1
              {
                OFFSET 8.82822 0.546677 1.51678
                CHANNELS 3 Zrotation Xrotation Yrotation
                JOINT lRing2
                {
                  OFFSET 2.60934 -0.819778 -0.0198488
                  CHANNELS 3 Zrotation Xrotation Yrotation
                  End Site
                  {
                    OFFSET 2.33842 -0.294052 0.168128
                  }
                }
              }
              JOINT lPinky1
              {
                OFFSET 8.27202 -0.0477905 -0.4584
                CHANNELS 3 Zrotation Xrotation Yrotation
                JOINT lPinky2
                {
                  OFFSET 1.82734 -0.647385 -0.700984
                  CHANNELS 3 Zrotation Xrotation Yrotation
                  End Site
                  {
                    OFFSET 1.69225 -0.51767 -0.607171
                  }
                }
              }
            }
          }
        }
      }
    }
  }
  JOINT rButtock
  {
    OFFSET -8.77824 4.35084 1.2192
    CHANNELS 3 Zrotation Xrotation Yrotation
    JOINT rThigh
    {
      OFFSET 0 -1.70687 -2.19456
      CHANNELS 3 Zrotation Xrotation Yrotation
      JOINT rShin
      {
        OFFSET 0 -36.8199 0.73152
        CHANNELS 3 Zrotation Xrotation Yrotation
        JOINT rFoot
        {
          OFFSET 0.73152 -45.1104 -5.12064
          CHANNELS 3 Zrotation Xrotation Yrotation
          End Site
          {
            OFFSET -1.1221 -3.69964 12.103
          }
        }
      }
    }
  }
  JOINT lButtock
  {
    OFFSET 8.77824 4.35084 1.2192
    CHANNELS 3 Zrotation Xrotation Yrotation
    JOINT lThigh
    {
      OFFSET 0 -1.70687 -2.19456
      CHANNELS 3 Zrotation Xrotation Yrotation
      JOINT lShin
      {
        OFFSET 0 -36.8199 0.73152
        CHANNELS 3 Zrotation Xrotation Yrotation
        JOINT lFoot
        {
          OFFSET -0.73152 -45.1104 -5.12064
          CHANNELS 3 Zrotation Xrotation Yrotation
          End Site
          {
            OFFSET 1.1221 -3.69964 12.103
          }
        }
      }
    }
  }
}
MOTION
Frames:	4
Frame Time:	0.03333
32.908665388822556 1.993207260966301 110.9286330640316 0.49974778294563293 -1.5144575834274292 -1.5429679155349731 1.5861152410507202 1.158825397491455 0.10586688667535782 -0.8907230496406555 1.8635531663894653 -0.1377606838941574 0.827622652053833 0.7774854898452759 0.607932984828949 0.3930814862251282 -0.36168286204338074 0.11953069269657135 -0.16854219138622284 -1.9257854223251343 -1.5722787380218506 -0.9300182461738586 0.6681746244430542 -1.4455798864364624 0.4206133186817169 0.7055885195732117 0.043393924832344055 2.0475833415985107 0.08152561634778976 0.3974300026893616 -0.9409752488136292 0.6015011668205261 -0.28984546661376953 2.564211845397949 -0.8236569762229919 0.2294672429561615 -0.3803686201572418 1.7522146701812744 -1.8405061960220337 -1.0660948753356934 -0.01679387502372265 0.4856213927268982 -0.9481713175773621 0.9544879198074341 -0.024138953536748886 -0.4783192276954651 0.9820462465286255 -0.43905019760131836 1.036326289176941 -2.3104565143585205 -0.4815833270549774 1.4464229345321655 -0.8855413794517517 0.028627855703234673 0.22280307114124298 -1.5421192646026611 -0.020610319450497627 0.41132795810699463 -0.4986044764518738 1.471769094467163 -1.8041553497314453 1.0343906879425049 -1.788737177848816 -0.6864020228385925 -0.9122172594070435 0.6418883204460144 -0.5055508017539978 1.5927824974060059 0.3482760190963745 -1.997639775276184 1.1163294315338135 0.41497743129730225 -0.7422894239425659 0.67145174741745 -0.9348409175872803 -0.7707679867744446 -0.2785532772541046 -1.5635371208190918 -0.3250298500061035 1.2455114126205444 1.4260014295578003 1.3065541982650757 1.3393523693084717 0.6866543292999268 -0.5294837355613708 0.3420228660106659 0.2706225514411926 -0.3408987522125244 -0.6883593797683716 -0.7852304577827454 2.205024242401123 -0.8019696474075317 1.0659962892532349 0.5361126065254211 -0.022781621664762497 -0.5291868448257446 -0.3110964298248291 0.4850575029850006 1.0181143283843994 1.4951741695404053 1.5833110809326172 -1.7870949506759644 1.9754408597946167 -0.3859032690525055 -1.270400881767273 -1.6956326961517334 0.3163071870803833 -2.2460570335388184 -0.3628426492214203 1.401212215423584 -0.1147819384932518 1.1644294261932373 -1.0039646625518799 -0.8966739177703857 -1.4833204746246338 0.9118940234184265 -1.241284728050232 -0.9664865732192993 0.16065098345279694 -1.120561957359314 -1.6086640357971191 -0.7178407907485962 -1.326323390007019 -0.03950215503573418 1.097762942314148 0.9109346866607666 -1.3320670127868652 -0.48611825704574585 0.8623852133750916 1.9968574047088623 -2.3658385276794434 -1.4199098348617554
33.520334120839834 1.984667219221592 113.1508270278573 0.5028020739555359 -1.4912481307983398 -1.5590962171554565 1.5899333953857422 1.1561297178268433 0.11962249875068665 -0.8859855532646179 1.871543049812317 -0.1264825165271759 0.8304581642150879 0.764746904373169 0.6201366186141968 0.3890475332736969 -0.36262747645378113 0.11801520735025406 -0.15404579043388367 -1.938597559928894 -1.5650078058242798 -0.9276207685470581 0.6677272915840149 -1.4494560956954956 0.4392962157726288 0.6904733777046204 0.046008747071027756 2.0342302322387695 0.0915796086192131 0.39815405011177063 -0.9461920261383057 0.5931539535522461 -0.29001179337501526 2.583889961242676 -0.8121449947357178 0.2298453450202942 -0.3969264030456543 1.759032964706421 -1.8543281555175781 -1.059079885482788 -0.019852807745337486 0.4862920343875885 -0.9507124423980713 0.9414434432983398 -0.02004413679242134 -0.475308358669281 0.9782452583312988 -0.4499322772026062 1.02267324924469 -2.3211240768432617 -0.47771888971328735 1.433477759361267 -0.8751072883605957 0.0097852423787117 0.21422138810157776 -1.520735263824463 -0.014496603980660439 0.4108099937438965 -0.4956310987472534 1.4696155786514282 -1.788913369178772 1.035828709602356 -1.7986360788345337 -0.678347647190094 -0.9192134141921997 0.6291325092315674 -0.5120457410812378 1.609994649887085 0.3570197820663452 -1.9845651388168335 1.1003391742706299 0.4037981629371643 -0.7490231394767761 0.6530424356460571 -0.9229801893234253 -0.7950703501701355 -0.26931512355804443 -1.546811819076538 -0.30994245409965515 1.2508190870285034 1.426748514175415 1.2981805801391602 1.3398832082748413 0.7010729908943176 -0.5278334617614746 0.34555140137672424 0.27571991086006165 -0.3389737010002136 -0.6836649179458618 -0.7873440980911255 2.2135379314422607 -0.795030415058136 1.072030782699585 0.5374132394790649 -0.014953065663576126 -0.5223584771156311 -0.30871590971946716 0.4810810387134552 1.034583568572998 1.4971349239349365 1.5765661001205444 -1.7920283079147339 1.980139136314392 -0.3767126500606537 -1.2577416896820068 -1.6796854734420776 0.31537795066833496 -2.246896266937256 -0.36744260787963867 1.4034466743469238 -0.10918974131345749 1.1585793495178223 -1.0095703601837158 -0.896744966506958 -1.4795145988464355 0.9219290614128113 -1.2585903406143188 -0.9834462404251099 0.16471272706985474 -1.1136058568954468 -1.6132110357284546 -0.7121251225471497 -1.3228354454040527 -0.05399641767144203 1.0851428508758545 0.9084280133247375 -1.3377234935760498 -0.49476659297943115 0.8687402009963989 1.9887019395828247 -2.3697941303253174 -1.4015004634857178
34.138614078983665 1.9783491268754005 115.36677870899439 0.4953371286392212 -1.5022493600845337 -1.5564011335372925 1.586182951927185 1.1610052585601807 0.11770456284284592 -0.8821268081665039 1.8804210424423218 -0.11858882009983063 0.8390863537788391 0.7543938159942627 0.61268150806427 0.40387043356895447 -0.3496362268924713 0.11922746896743774 -0.13601483404636383 -1.9388424158096313 -1.5669294595718384 -0.9287890195846558 0.6752983927726746 -1.44844651222229 0.43962761759757996 0.6868046522140503 0.04547736421227455 2.046625852584839 0.08287976682186127 0.3921222388744354 -0.9444924592971802 0.5923547148704529 -0.2877129018306732 2.585754632949829 -0.8136270046234131 0.228536456823349 -0.3960821330547333 1.758008599281311 -1.8524045944213867 -1.0561708211898804 -0.023614859208464622 0.4879075586795807 -0.9467650055885315 0.9435281753540039 -0.02644665353000164 -0.4720742702484131 0.9737243056297302 -0.439424067735672 1.0284093618392944 -2.3198606967926025 -0.46793729066848755 1.4330874681472778 -0.882051408290863 0.015621587634086609 0.22525444626808167 -1.524884581565857 -0.009766400791704655 0.40707090497016907 -0.4965338706970215 1.465914011001587 -1.7867597341537476 1.0387390851974487 -1.8024437427520752 -0.6846271753311157 -0.9179220795631409 0.6289581656455994 -0.5118328332901001 1.6170682907104492 0.3569072484970093 -1.9839128255844116 1.1055433750152588 0.4137532413005829 -0.7317264676094055 0.6703655123710632 -0.9199840426445007 -0.7851468324661255 -0.2807036340236664 -1.5528610944747925 -0.3034363389015198 1.2401492595672607 1.4308561086654663 1.3070111274719238 1.3173894882202148 0.7095857262611389 -0.5209018588066101 0.34148970246315 0.2817470133304596 -0.3342917859554291 -0.6805376410484314 -0.7971112728118896 2.2090773582458496 -0.7923616766929626 1.0686299800872803 0.5321192145347595 -0.016076121479272842 -0.5178705453872681 -0.31634581089019775 0.4757304787635803 1.0359333753585815 1.493265986442566 1.5692124366760254 -1.7868571281433105 1.975603699684143 -0.37796497344970703 -1.256972074508667 -1.6776154041290283 0.32295480370521545 -2.2426092624664307 -0.35890644788742065 1.4015333652496338 -0.10857614129781723 1.1705085039138794 -1.0020021200180054 -0.9088204503059387 -1.4881007671356201 0.9196822643280029 -1.2537175416946411 -0.991716742515564 0.16084562242031097 -1.1173348426818848 -1.6139445304870605 -0.7088602185249329 -1.3250713348388672 -0.05993213877081871 1.0906033515930176 0.9087877869606018 -1.3218152523040771 -0.49283158779144287 0.8630036115646362 1.9939002990722656 -2.3760268688201904 -1.3999536037445068
34.76462196558714 1.9776919856667519 117.56435818970203 0.4846143424510956 -1.532165288925171 -1.5410126447677612 1.57822585105896 1.168008804321289 0.10396815091371536 -0.8820046782493591 1.8841429948806763 -0.1180533692240715 0.8463674783706665 0.7519629001617432 0.5953391194343567 0.42303553223609924 -0.33320891857147217 0.1224542111158371 -0.1279696673154831 -1.9295439720153809 -1.574464201927185 -0.932473361492157 0.6840972900390625 -1.444300651550293 0.4257570207118988 0.6946165561676025 0.04280439391732216 2.069979429244995 0.0648912563920021 0.3842306435108185 -0.9372478127479553 0.5979636907577515 -0.2859235107898712 2.5729708671569824 -0.8237902522087097 0.22563137114048004 -0.38368096947669983 1.7510428428649902 -1.8396936655044556 -1.058166265487671 -0.025852367281913757 0.4903026521205902 -0.94073086977005 0.9561755061149597 -0.036366865038871765 -0.47063571214675903 0.9732673168182373 -0.41816768050193787 1.0454713106155396 -2.3104288578033447 -0.4614761173725128 1.4424285888671875 -0.8989120721817017 0.03595568239688873 0.2425238937139511 -1.5456664562225342 -0.008296535350382328 0.40433230996131897 -0.4999082386493683 1.464469075202942 -1.7956438064575195 1.0411508083343506 -1.7997797727584839 -0.6969838738441467 -0.9124479293823242 0.6400539875030518 -0.5068360567092896 1.6135820150375366 0.34940168261528015 -1.9939886331558228 1.1227675676345825 0.43359148502349854 -0.7063668370246887 0.7034826874732971 -0.9253377318382263 -0.7544804215431213 -0.3017180860042572 -1.5714974403381348 -0.3081969618797302 1.2234103679656982 1.4346860647201538 1.323055386543274 1.290234923362732 0.708491861820221 -0.5139706134796143 0.3345295190811157 0.2858300805091858 -0.3315313756465912 -0.6804959774017334 -0.8060958981513977 2.1987595558166504 -0.7943717241287231 1.0590897798538208 0.5251107215881348 -0.0227825865149498 -0.5178626775741577 -0.3267498314380646 0.47251096367836 1.0245825052261353 1.4879138469696045 1.5653908252716064 -1.7757974863052368 1.9669818878173828 -0.3854430913925171 -1.2651700973510742 -1.6880903244018555 0.33196353912353516 -2.238090991973877 -0.3453018367290497 1.3966610431671143 -0.11136146634817123 1.1886366605758667 -0.9903298020362854 -0.9228086471557617 -1.5008962154388428 0.9103099703788757 -1.234844446182251 -0.988380491733551 0.15345168113708496 -1.1279549598693848 -1.6103981733322144 -0.7100867629051208 -1.3290882110595703 -0.055869270116090775 1.1063865423202515 0.9117282032966614 -1.2989848852157593 -0.48368239402770996 0.8524990081787109 2.0065367221832275 -2.3797812461853027 -1.4113144874572754
